<svg xmlns="http://www.w3.org/2000/svg" xmlns:xlink="http://www.w3.org/1999/xlink" width="500" zoomAndPan="magnify" viewBox="0 0 375 374.999991" height="500" preserveAspectRatio="xMidYMid meet" version="1.0"><defs><g/><clipPath id="f058e75b46"><path d="M 30.242188 153.085938 L 95 153.085938 L 95 221.335938 L 30.242188 221.335938 Z M 30.242188 153.085938 " clip-rule="nonzero"/></clipPath><clipPath id="c6e9b231cd"><path d="M 67.570312 184.867188 L 38.566406 184.867188 C 37.441406 184.867188 36.625 183.792969 36.929688 182.710938 L 44.894531 154.332031 C 45.097656 153.601562 45.765625 153.09375 46.527344 153.09375 L 75.53125 153.09375 C 76.65625 153.09375 77.472656 154.167969 77.167969 155.25 L 69.203125 183.628906 C 69 184.359375 68.332031 184.867188 67.570312 184.867188 Z M 48.730469 206.289062 L 52.832031 191.675781 C 53.136719 190.59375 52.320312 189.519531 51.195312 189.519531 L 36.285156 189.519531 C 35.523438 189.519531 34.855469 190.027344 34.652344 190.757812 L 30.550781 205.371094 C 30.246094 206.453125 31.0625 207.527344 32.1875 207.527344 L 47.097656 207.527344 C 47.855469 207.527344 48.527344 207.019531 48.730469 206.289062 Z M 56.277344 190.757812 L 48.3125 219.136719 C 48.007812 220.21875 48.824219 221.292969 49.949219 221.292969 L 78.953125 221.292969 C 79.714844 221.292969 80.382812 220.785156 80.585938 220.054688 L 88.550781 191.675781 C 88.855469 190.59375 88.039062 189.519531 86.914062 189.519531 L 57.910156 189.519531 C 57.148438 189.519531 56.480469 190.027344 56.277344 190.757812 Z M 76.75 168.097656 L 72.648438 182.710938 C 72.34375 183.792969 73.160156 184.867188 74.285156 184.867188 L 89.195312 184.867188 C 89.957031 184.867188 90.625 184.359375 90.828125 183.628906 L 94.929688 169.015625 C 95.234375 167.933594 94.417969 166.859375 93.292969 166.859375 L 78.382812 166.859375 C 77.625 166.859375 76.953125 167.367188 76.75 168.097656 Z M 76.75 168.097656 " clip-rule="nonzero"/></clipPath></defs><g fill="#ffffff" fill-opacity="1"><g transform="translate(103.969699, 209.711573)"><g><path d="M 21.09375 0.609375 C 17.5 0.609375 14.242188 -0.171875 11.328125 -1.734375 C 8.421875 -3.304688 6.132812 -5.476562 4.46875 -8.25 C 2.800781 -11.03125 1.96875 -14.164062 1.96875 -17.65625 C 1.96875 -21.15625 2.800781 -24.289062 4.46875 -27.0625 C 6.132812 -29.84375 8.421875 -32.015625 11.328125 -33.578125 C 14.242188 -35.148438 17.515625 -35.9375 21.140625 -35.9375 C 24.203125 -35.9375 26.96875 -35.394531 29.4375 -34.3125 C 31.914062 -33.238281 34 -31.691406 35.6875 -29.671875 L 30.4375 -24.828125 C 28.039062 -27.585938 25.078125 -28.96875 21.546875 -28.96875 C 19.359375 -28.96875 17.40625 -28.488281 15.6875 -27.53125 C 13.976562 -26.570312 12.644531 -25.234375 11.6875 -23.515625 C 10.726562 -21.796875 10.25 -19.84375 10.25 -17.65625 C 10.25 -15.476562 10.726562 -13.53125 11.6875 -11.8125 C 12.644531 -10.09375 13.976562 -8.753906 15.6875 -7.796875 C 17.40625 -6.835938 19.359375 -6.359375 21.546875 -6.359375 C 25.078125 -6.359375 28.039062 -7.753906 30.4375 -10.546875 L 35.6875 -5.703125 C 34 -3.648438 31.910156 -2.082031 29.421875 -1 C 26.929688 0.0703125 24.15625 0.609375 21.09375 0.609375 Z M 21.09375 0.609375 "/></g></g></g><g fill="#ffffff" fill-opacity="1"><g transform="translate(140.966214, 209.711573)"><g><path d="M 26.703125 0 L 19.890625 -9.84375 L 12.359375 -9.84375 L 12.359375 0 L 4.1875 0 L 4.1875 -35.328125 L 19.484375 -35.328125 C 22.609375 -35.328125 25.320312 -34.804688 27.625 -33.765625 C 29.9375 -32.722656 31.710938 -31.242188 32.953125 -29.328125 C 34.203125 -27.410156 34.828125 -25.140625 34.828125 -22.515625 C 34.828125 -19.890625 34.191406 -17.625 32.921875 -15.71875 C 31.660156 -13.820312 29.875 -12.367188 27.5625 -11.359375 L 35.484375 0 Z M 26.546875 -22.515625 C 26.546875 -24.492188 25.90625 -26.015625 24.625 -27.078125 C 23.34375 -28.140625 21.476562 -28.671875 19.03125 -28.671875 L 12.359375 -28.671875 L 12.359375 -16.359375 L 19.03125 -16.359375 C 21.476562 -16.359375 23.34375 -16.894531 24.625 -17.96875 C 25.90625 -19.039062 26.546875 -20.554688 26.546875 -22.515625 Z M 26.546875 -22.515625 "/></g></g></g><g fill="#ffffff" fill-opacity="1"><g transform="translate(178.063677, 209.711573)"><g><path d="M 4.1875 -35.328125 L 12.359375 -35.328125 L 12.359375 0 L 4.1875 0 Z M 4.1875 -35.328125 "/></g></g></g><g fill="#ffffff" fill-opacity="1"><g transform="translate(194.618734, 209.711573)"><g><path d="M 15.796875 0.609375 C 13.003906 0.609375 10.300781 0.226562 7.6875 -0.53125 C 5.082031 -1.289062 2.988281 -2.273438 1.40625 -3.484375 L 4.1875 -9.640625 C 5.695312 -8.523438 7.492188 -7.628906 9.578125 -6.953125 C 11.671875 -6.285156 13.757812 -5.953125 15.84375 -5.953125 C 18.164062 -5.953125 19.878906 -6.296875 20.984375 -6.984375 C 22.097656 -7.679688 22.65625 -8.597656 22.65625 -9.734375 C 22.65625 -10.578125 22.328125 -11.273438 21.671875 -11.828125 C 21.015625 -12.390625 20.171875 -12.835938 19.140625 -13.171875 C 18.117188 -13.503906 16.734375 -13.875 14.984375 -14.28125 C 12.296875 -14.914062 10.09375 -15.550781 8.375 -16.1875 C 6.65625 -16.832031 5.179688 -17.863281 3.953125 -19.28125 C 2.734375 -20.695312 2.125 -22.582031 2.125 -24.9375 C 2.125 -26.988281 2.675781 -28.84375 3.78125 -30.5 C 4.894531 -32.164062 6.566406 -33.488281 8.796875 -34.46875 C 11.035156 -35.445312 13.773438 -35.9375 17.015625 -35.9375 C 19.265625 -35.9375 21.460938 -35.664062 23.609375 -35.125 C 25.765625 -34.582031 27.648438 -33.804688 29.265625 -32.796875 L 26.75 -26.59375 C 23.488281 -28.445312 20.222656 -29.375 16.953125 -29.375 C 14.671875 -29.375 12.984375 -29.003906 11.890625 -28.265625 C 10.796875 -27.523438 10.25 -26.546875 10.25 -25.328125 C 10.25 -24.117188 10.878906 -23.21875 12.140625 -22.625 C 13.398438 -22.039062 15.328125 -21.460938 17.921875 -20.890625 C 20.609375 -20.253906 22.8125 -19.613281 24.53125 -18.96875 C 26.25 -18.332031 27.71875 -17.320312 28.9375 -15.9375 C 30.164062 -14.5625 30.78125 -12.695312 30.78125 -10.34375 C 30.78125 -8.320312 30.21875 -6.476562 29.09375 -4.8125 C 27.96875 -3.15625 26.273438 -1.835938 24.015625 -0.859375 C 21.765625 0.117188 19.023438 0.609375 15.796875 0.609375 Z M 15.796875 0.609375 "/></g></g></g><g fill="#ffffff" fill-opacity="1"><g transform="translate(226.820335, 209.711573)"><g><path d="M 11.5 -28.671875 L 0.203125 -28.671875 L 0.203125 -35.328125 L 30.984375 -35.328125 L 30.984375 -28.671875 L 19.6875 -28.671875 L 19.6875 0 L 11.5 0 Z M 11.5 -28.671875 "/></g></g></g><g fill="#ffffff" fill-opacity="1"><g transform="translate(258.012487, 209.711573)"><g><path d="M 4.1875 -35.328125 L 12.359375 -35.328125 L 12.359375 0 L 4.1875 0 Z M 4.1875 -35.328125 "/></g></g></g><g fill="#ffffff" fill-opacity="1"><g transform="translate(274.567543, 209.711573)"><g><path d="M 27.453125 -7.5625 L 11.046875 -7.5625 L 7.921875 0 L -0.453125 0 L 15.296875 -35.328125 L 23.359375 -35.328125 L 39.15625 0 L 30.578125 0 Z M 24.875 -13.78125 L 19.28125 -27.296875 L 13.671875 -13.78125 Z M 24.875 -13.78125 "/></g></g></g><g fill="#ffffff" fill-opacity="1"><g transform="translate(313.229666, 209.711573)"><g><path d="M 36.59375 -35.328125 L 36.59375 0 L 29.875 0 L 12.265625 -21.453125 L 12.265625 0 L 4.1875 0 L 4.1875 -35.328125 L 10.953125 -35.328125 L 28.515625 -13.875 L 28.515625 -35.328125 Z M 36.59375 -35.328125 "/></g></g></g><g clip-path="url(#f058e75b46)"><g clip-path="url(#c6e9b231cd)"><path fill="#ffffff" d="M 30.246094 153.09375 L 30.246094 221.292969 L 95.234375 221.292969 L 95.234375 153.09375 Z M 30.246094 153.09375 " fill-opacity="1" fill-rule="nonzero"/></g></g></svg>